<?xml version="1.0" encoding="utf-8"?>
<!-- Generator: Adobe Illustrator 27.1.1, SVG Export Plug-In . SVG Version: 6.00 Build 0)  -->
<svg version="1.1" id="Layer_1" xmlns="http://www.w3.org/2000/svg" xmlns:xlink="http://www.w3.org/1999/xlink" x="0px" y="0px"
	 viewBox="0 0 492 207" style="enable-background:new 0 0 492 207;" xml:space="preserve">
<style type="text/css">
	.st0{fill:#FE2020;}
</style>
<g>
	<g>
		<g>
			<g>
				<path class="st0" d="M261.43,50.41h-18.6c-1.33,0-2.53,0.77-3.08,1.98L229.47,74.8l-10.27-22.41c-0.55-1.21-1.76-1.98-3.08-1.98
					h-18.6c-2.47,0-4.11,2.56-3.08,4.8l21.36,46.62c0.41,0.9,0.41,1.93,0,2.83l-21.6,47.12c-1.03,2.25,0.61,4.8,3.08,4.8h18.6
					c1.33,0,2.53-0.77,3.08-1.98l23.41-51.1h0.01h0.24l-0.12-0.26l22.01-48.03C265.54,52.97,263.9,50.41,261.43,50.41z"/>
			</g>
			<g>
				<path class="st0" d="M294.72,50.41h-18.6c-1.33,0-2.53,0.77-3.08,1.98l-23.42,51.11h0l0,0l0,0h0l23.42,51.11
					c0.55,1.21,1.76,1.98,3.08,1.98h18.6c2.47,0,4.11-2.56,3.08-4.8l-21.48-46.88c-0.41-0.9-0.41-1.93,0-2.82l21.48-46.88
					C298.83,52.97,297.19,50.41,294.72,50.41z"/>
			</g>
		</g>
	</g>
</g>
</svg>
