<?xml version="1.0" encoding="utf-8"?>
<!-- Generator: Adobe Illustrator 27.1.1, SVG Export Plug-In . SVG Version: 6.00 Build 0)  -->
<svg version="1.1" id="Layer_1" xmlns="http://www.w3.org/2000/svg" xmlns:xlink="http://www.w3.org/1999/xlink" x="0px" y="0px"
	 viewBox="0 0 492 207" style="enable-background:new 0 0 492 207;" xml:space="preserve">
<style type="text/css">
	.st0{fill:#FE2020;}
	.st1{fill:#333333;}
</style>
<g>
	<g>
		<g>
			<g>
				<g>
					<path class="st0" d="M71,61.33H56.22c-1.05,0-2.01,0.61-2.45,1.57l-8.16,17.8l-8.16-17.8c-0.44-0.96-1.4-1.57-2.45-1.57H20.23
						c-1.96,0-3.27,2.03-2.45,3.82l16.97,37.03c0.33,0.71,0.33,1.53,0,2.24l-17.16,37.43c-0.82,1.78,0.49,3.82,2.45,3.82h14.78
						c1.05,0,2.01-0.61,2.45-1.57l18.6-40.59h0.01h0.19l-0.1-0.21l17.48-38.15C74.27,63.36,72.96,61.33,71,61.33z"/>
				</g>
				<g>
					<path class="st0" d="M97.45,61.33H82.67c-1.05,0-2.01,0.61-2.45,1.57l-18.6,40.6h0l0,0l0,0h0l18.6,40.6
						c0.44,0.96,1.4,1.57,2.45,1.57h14.78c1.96,0,3.27-2.03,2.45-3.82l-17.06-37.24c-0.33-0.71-0.33-1.53,0-2.24L99.9,65.14
						C100.71,63.36,99.41,61.33,97.45,61.33z"/>
				</g>
			</g>
		</g>
	</g>
	<g>
		<path class="st1" d="M120.73,87.95h10.62c0.96,0,1.83,0.57,2.22,1.46l7.92,18.35c0,0.01,0.02,0.01,0.02,0l7.98-18.36
			c0.38-0.88,1.25-1.45,2.21-1.45h9.61c0.01,0,0.02,0.01,0.01,0.02l-14.47,30.53c-2.76,5.86-6.59,9.36-14.65,9.36
			c-6.64,0-9.74-1.97-11.09-3.32c0,0-0.01-0.01,0-0.02l4.21-6.29c0-0.01,0.01-0.01,0.02,0c1.41,1.01,3.32,1.8,5.79,1.8
			c2.19,0,4.44-0.78,5.46-2.36c0,0,0-0.01,0-0.01l-15.88-29.67C120.71,87.96,120.72,87.95,120.73,87.95z"/>
		<path class="st1" d="M173.21,105.81c-0.01,0-0.02,0.01-0.01,0.02c0.79,4.44,4.23,6.29,11.1,6.29c4.47,0,7.7-1.03,9.61-2.64
			c0.54-0.46,1.27-0.61,1.96-0.43l8.93,2.38c0.01,0,0.01,0.01,0.01,0.02c-2.54,5.34-9.24,7.93-20.45,7.93
			c-14.31,0-21.98-3.94-21.98-16.06c0-12.17,7.66-16.06,21.98-16.06c17.19,0,21.64,4.91,21.64,17.02v1.51
			c0,0.01-0.01,0.01-0.01,0.01L173.21,105.81z M195.1,99.67c0.01,0,0.02-0.01,0.01-0.02c-0.91-3.71-4.57-5.11-10.82-5.11
			c-6.24,0-9.85,1.4-10.82,5.11c0,0.01,0,0.02,0.01,0.02H195.1z"/>
		<path class="st1" d="M245.83,97.6c-0.79,0.24-1.67,0.05-2.22-0.56c-1.47-1.64-5.12-2.66-10.09-2.66c-6.42,0-10.6,0.9-10.6,2.76
			c0,2.37,3.66,2.37,7.21,2.37c2.42,0,5.07-0.06,7.1-0.06c11.38,0,16.68,2.2,16.68,9.13c0,6.76-5.63,11.33-21.41,11.33
			c-11.52,0-18.49-3.11-21.18-8.55c-0.03-0.06,0.01-0.14,0.07-0.16l8.76-2.07c0.74-0.18,1.54,0.02,2.08,0.55
			c1.46,1.45,4.45,2.79,11.12,2.79c6.82,0,9.64-0.84,9.64-2.93c0-2.03-3.1-2.37-6.99-2.37c-2.03,0-4.34,0.06-6.76,0.06
			c-7.83,0-17.24-1.64-17.24-9.75c0-6.25,5.8-10.2,21.47-10.2c12.8,0,18.45,3.05,20.41,7.72c0.03,0.06-0.01,0.13-0.07,0.15
			L245.83,97.6z"/>
		<path class="st1" d="M302.17,109.42c0.01,0,0.01,0.01,0.01,0.02c-1.7,6.69-8.63,9.96-21.13,9.96c-14.31,0-21.98-3.94-21.98-16.06
			c0-12.17,7.66-16.06,21.98-16.06c12.28,0,19.32,2.53,20.85,9.62c0,0.01,0,0.01-0.01,0.02l-7.77,2.42c-0.95,0.3-1.97-0.09-2.5-0.92
			c-1.63-2.52-4.96-3.42-10.62-3.42c-8.06,0-11.38,2.42-11.38,8.34c0,5.92,3.32,8.34,11.38,8.34c5.61,0,9.26-1.04,10.8-3.47
			c0.53-0.83,1.52-1.24,2.47-0.98L302.17,109.42z"/>
		<path class="st1" d="M330.44,119.39c-14.31,0-22.6-3.94-22.6-16.06c0-12.17,8.28-16.06,22.6-16.06c14.26,0,22.49,3.89,22.49,16.06
			C352.93,115.45,344.7,119.39,330.44,119.39z M330.38,95c-8.11,0-12,2.42-12,8.34c0,5.92,3.89,8.34,12,8.34
			c8,0,11.89-2.42,11.89-8.34C342.27,97.42,338.39,95,330.38,95z"/>
		<path class="st1" d="M360.28,118.7V80.49c0-1.24,0.94-2.28,2.17-2.41l9.14-0.94c0.01,0,0.01,0.01,0.01,0.01v41.54
			c0,0.01-0.01,0.01-0.01,0.01h-11.3C360.29,118.72,360.28,118.71,360.28,118.7z"/>
		<path class="st1" d="M426,117.92c0,0,0,0.01-0.01,0.01c-1.41,1.13-3.77,1.46-5.63,1.46c-4.11,0-6.08-1.23-7.09-3.09
			c0-0.01-0.01-0.01-0.02,0c-2.99,1.69-8.9,3.09-18.19,3.09c-10.6,0-16.57-3.72-16.57-10.82c0-8.34,10.37-9.69,19.39-9.69
			c6.52,0,10.85,0.67,13.5,1.57c0.01,0,0.02-0.01,0.02-0.02c-0.45-3.25-1.71-5.39-12.28-5.39c-5.71,0-10,0.84-13.17,2.38
			c-0.7,0.34-1.53,0.22-2.08-0.33l-4.68-4.63c-0.01-0.01-0.01-0.02,0-0.02c4.11-3.21,10.71-5.18,20.9-5.18
			c11.16,0,16.12,1.97,18.54,4.79c1.63,1.92,2.76,4.17,3.21,7.78c0.68,5.69,0.22,8.51,0.62,9.92c0.34,1.07,0.79,1.69,1.69,1.69
			l1.86,0L426,117.92z M411.97,106.72c0-0.01,0-0.01-0.01-0.01c-2.21-0.62-8.62-1.46-13.57-1.46c-7.72,0-8.62,1.29-8.62,3.38
			c0,2.14,0.9,3.44,8.62,3.44c4.95,0,11.36-0.84,13.74-1.58c0.01,0,0.01-0.01,0.01-0.01L411.97,106.72z"/>
		<path class="st1" d="M455.89,87.27c-6.3,0-10.29,0.93-13.06,2.56c-0.01-0.01-0.01-0.01-0.02-0.01V77.16
			c-0.01-0.01-0.01-0.01-0.01-0.01l-9.08,0.94c-1.23,0.13-2.17,1.17-2.17,2.41v38.2c0,0,11.19,0.02,11.19,0.02v-4.08
			c3.77,3.3,9.05,4.75,13.15,4.75c11.27,0,18.76-3.94,18.76-16.06C474.66,91.16,467.16,87.27,455.89,87.27z M454.71,111.67
			c-4.11,0-8.2-1.28-11.88-3.08c-0.01,0-0.01-10.18-0.01-10.18c0,0,0-0.01,0-0.01c2.26-2.59,5.58-3.41,10.08-3.41
			c7.61,0,11.21,2.36,11.21,8.34C464.12,108.86,460.57,111.67,454.71,111.67z"/>
	</g>
</g>
</svg>
